<svg width="3210" height="3215" viewBox="0 0 3210 3215" fill="none" xmlns="http://www.w3.org/2000/svg">
<path fill-rule="evenodd" clip-rule="evenodd" d="M2944.92 7.53203C2903.62 21.5181 2840.99 82.377 2825.17 123.879C2811.64 159.374 2811.25 244.627 2824.48 274.897C2829.94 287.384 2707.69 411.905 2274.1 835.481L2088.74 1016.56L2091.05 1101.36L2093.36 1186.18L2505.48 779.3C2911 378.921 2917.95 372.563 2940.55 381.17C2953.18 385.979 2986.14 389.916 3013.79 389.916C3174.17 389.916 3263.85 216.85 3172.6 83.4365C3138.9 34.1674 3085.24 4.61407 3023.26 1.1909C2995.07 -0.365823 2959.81 2.48694 2944.92 7.53203ZM2953.61 95.442C2881.7 139.364 2874.81 238.701 2940.1 290.155C2985.82 326.18 3051.18 319.586 3094.19 274.612C3112.93 255.018 3118.04 241.277 3120.8 203.092C3123.84 160.906 3121.83 153 3102.04 129.437C3059.03 78.2364 3002.84 65.367 2953.61 95.442ZM808.656 104.603C709.233 127.962 585.469 224.128 527.423 323.123C463.275 432.518 466.985 383.762 464.259 1153.74L461.819 1841.16L484.386 1823.42C496.801 1813.67 531.555 1781.92 561.624 1752.87L616.286 1700.06L618.572 1091.34L620.85 482.626L646.769 427.815C690.912 334.444 774.837 269.567 876.188 250.454C939.506 238.514 2083.16 239.329 2139.74 251.351C2163.45 256.396 2201.15 269.746 2223.53 281.018C2273.94 306.431 2356.62 389.679 2377.3 435.851C2385.81 454.85 2395.58 470.401 2399.02 470.401C2402.45 470.401 2429.2 444.124 2458.46 412.003L2511.67 353.598L2497.76 328.608C2472.73 283.618 2356.2 174.004 2304.22 146.561C2204.73 94.0401 2226.46 95.4013 1499.8 96.2979C1131.23 96.7624 826.456 100.422 808.656 104.603ZM1145.58 526.72C1087.62 538.872 1048.09 569.501 1018.4 625.258C1004.03 652.252 1003.09 686.142 1000.98 1256.16C998.471 1930.15 997.487 1916.67 1053.83 1979.15C1070.13 1997.22 1098.35 2019.99 1116.56 2029.75C1148.63 2046.95 1159.21 2047.57 1457.48 2049.91C1813.4 2052.69 1827.58 2050.79 1887.95 1992.01C1953.57 1928.11 1950.99 1957.25 1950.99 1278.82C1950.99 853.803 1948.3 671.12 1941.71 649.074C1929.34 607.751 1892.03 563.706 1850.54 541.48C1817.41 523.729 1810.59 523.354 1495.41 522.066C1318.67 521.341 1161.24 523.435 1145.58 526.72ZM1157.42 677.869L1137.45 697.87V1281.62V1865.37L1161.23 1889.2L1185.01 1913.02H1473.99H1762.96L1785.79 1893.35L1808.62 1873.69L1810.81 1285.94L1813.01 698.188L1792.88 678.024L1772.75 657.86H1475.07H1177.39L1157.42 677.869ZM2469.73 978.83L2398.65 1045L2396.51 1591.08L2394.37 2137.16L2375.49 2184C2350.92 2244.95 2290.01 2311 2227.67 2344.3C2160.73 2380.04 2099.03 2385.25 1739.41 2385.52L1450.55 2385.74L1228 2608.81L1005.47 2831.87L968.468 2820.72C920.624 2806.29 904.231 2806.66 852.766 2823.31C738.252 2860.36 681.776 2999.73 737.373 3108.05C827.693 3284.03 1092.9 3229.76 1110.65 3031.66C1113.55 2999.24 1110.98 2976 1102.3 2956.27L1089.74 2927.74L1290.54 2730.31L1491.34 2532.88L1816.76 2532.55C2176.21 2532.17 2202.29 2529.41 2300.38 2481.28C2414.23 2425.43 2516.84 2284.77 2536.55 2157.53C2541.06 2128.39 2544.78 2014.66 2544.81 1904.8L2544.88 1705.05L2730.42 1519.3C2910.38 1339.13 2916.63 1333.8 2938.4 1342.09C2971.54 1354.72 3053.54 1352.48 3088.18 1338C3126.19 1322.12 3168.03 1282.33 3188.44 1242.67C3251.53 1120.03 3167.56 974.56 3026.25 961.723C2889.31 949.277 2781.65 1085.46 2821.83 1220.29L2830.32 1248.76L2687.69 1388.18L2545.06 1527.61L2542.94 1220.14L2540.81 912.665L2469.73 978.83ZM2971.99 1045.03C2866.57 1082.5 2872.21 1238.25 2980.06 1268.08C3066.25 1291.93 3149.13 1208.3 3123.68 1123.19C3113.22 1088.23 3065.98 1040.93 3041.52 1040.93C3033.09 1040.93 3021.32 1039.25 3015.36 1037.2C3009.4 1035.14 2989.88 1038.66 2971.99 1045.03ZM579.953 1899.67L286.858 2187.92L225.143 2183.95C151.094 2179.19 118.48 2188.59 72.612 2227.93C-70.2215 2350.41 13.5815 2575.19 201.729 2574.29C255.992 2574.02 291.723 2561.22 331.172 2527.9C389.031 2479.03 413.755 2376.07 384.451 2306.02L371.776 2275.71L624.714 2024.01L877.66 1772.3L875.358 1691.87L873.048 1611.42L579.953 1899.67ZM576.756 2240.01C525.86 2294.64 524.827 2296.63 536.079 2318.05C558.451 2360.62 653.302 2446.74 711.682 2477.47C792.662 2520.11 852.709 2532.19 984.34 2532.33L1095.62 2532.45L1149.98 2471.85C1239.59 2371.94 1246.29 2381.27 1087.09 2384.25C923.731 2387.31 858.859 2378.73 790.506 2345.02C737.292 2318.77 673.836 2256.74 650.813 2208.47C643.857 2193.9 636.104 2182.42 633.582 2182.97C631.052 2183.51 605.482 2209.18 576.756 2240.01ZM157.131 2266.84C86.4423 2298.31 64.1676 2380.51 108.115 2447.7C128.275 2478.52 166.519 2494.05 211.622 2489.7C327.112 2478.58 354.309 2327.06 250.395 2273.67C209.71 2252.78 191.69 2251.46 157.131 2266.84ZM848.641 2915.42C780.304 2960.48 778.05 3063.67 844.37 3110.98C882.127 3137.92 918.72 3140.53 962.285 3119.4C1076.65 3063.93 1037.27 2899.22 909.657 2899.3C886.902 2899.32 863.814 2905.41 848.641 2915.42Z" fill="#1B215C"/>
<path fill-rule="evenodd" clip-rule="evenodd" d="M2953.61 95.4419C2881.7 139.364 2874.81 238.701 2940.1 290.155C2985.81 326.18 3051.17 319.586 3094.19 274.612C3112.93 255.018 3118.04 241.277 3120.8 203.092C3123.84 160.906 3121.83 153 3102.04 129.437C3059.03 78.2364 3002.84 65.367 2953.61 95.4419ZM1442.11 702.776C1355.35 746.821 1385.38 877.92 1482.24 877.92C1526.43 877.92 1556.76 855.613 1569.23 813.923C1591.78 738.5 1510.95 667.827 1442.11 702.776ZM2971.98 1045.03C2866.57 1082.49 2872.21 1238.25 2980.05 1268.08C3066.25 1291.93 3149.13 1208.3 3123.68 1123.19C3113.22 1088.23 3065.98 1040.93 3041.52 1040.93C3033.09 1040.93 3021.32 1039.25 3015.36 1037.2C3009.4 1035.14 2989.88 1038.66 2971.98 1045.03ZM157.13 2266.84C86.4416 2298.31 64.1669 2380.51 108.114 2447.7C128.274 2478.52 166.518 2494.05 211.621 2489.7C327.112 2478.58 354.308 2327.06 250.395 2273.67C209.709 2252.78 191.689 2251.46 157.13 2266.84ZM848.641 2915.42C780.303 2960.48 778.05 3063.67 844.37 3110.98C882.126 3137.92 918.719 3140.53 962.284 3119.4C1076.65 3063.93 1037.27 2899.22 909.656 2899.3C886.901 2899.32 863.813 2905.41 848.641 2915.42Z" fill="#8FDB38"/>
</svg>
